<svg width="683" height="602" viewBox="0 0 683 602" fill="none" xmlns="http://www.w3.org/2000/svg">
<path d="M464.109 725.555C541.296 704.22 586.573 624.352 565.238 547.165C543.903 469.978 464.035 424.701 386.848 446.036C309.661 467.371 264.384 547.239 285.719 624.426C307.054 701.613 386.922 746.89 464.109 725.555Z" stroke="#F54702" stroke-width="2"/>
<path d="M767.637 667.595C801.174 658.325 820.846 623.624 811.576 590.088C802.306 556.551 767.605 536.879 734.069 546.149C700.532 555.419 680.86 590.12 690.13 623.656C699.4 657.193 734.101 676.865 767.637 667.595Z" stroke="#F54702" stroke-width="2"/>
<path d="M662.981 379.048C707.164 366.836 733.081 321.119 720.869 276.936C708.656 232.753 662.939 206.836 618.756 219.048C574.573 231.261 548.656 276.978 560.868 321.161C573.081 365.344 618.798 391.261 662.981 379.048Z" stroke="#F54702" stroke-width="2"/>
<path d="M124.704 372.208C158.773 362.791 178.757 327.539 169.34 293.47C159.923 259.401 124.671 239.417 90.6026 248.834C56.5339 258.251 36.5496 293.503 45.9664 327.572C55.3833 361.64 90.6353 381.625 124.704 372.208Z" stroke="#F54702" stroke-width="2"/>
</svg>
